v 0.5773502691896258 0.5773502691896258 0.5773502691896258
v 0.5773502691896258 0.5773502691896258 -0.5773502691896258
v 0.5773502691896258 -0.5773502691896258 0.5773502691896258
v -0.5773502691896258 0.5773502691896258 0.5773502691896258
v 0.5773502691896258 -0.5773502691896258 -0.5773502691896258
v -0.5773502691896258 0.5773502691896258 -0.5773502691896258
v -0.5773502691896258 -0.5773502691896258 0.5773502691896258
v -0.5773502691896258 -0.5773502691896258 -0.5773502691896258
v 0 0.35682208977308993 0.9341723589627159
v 0 0.35682208977308993 -0.9341723589627159
v 0 -0.35682208977308993 0.9341723589627159
v 0 -0.35682208977308993 -0.9341723589627159
v 0.35682208977308993 0.9341723589627159 0
v 0.35682208977308993 -0.9341723589627159 0
v -0.35682208977308993 0.9341723589627159 0
v -0.35682208977308993 -0.9341723589627159 0
v 0.9341723589627159 0 0.35682208977308993
v -0.9341723589627159 0 0.35682208977308993
v 0.9341723589627159 0 -0.35682208977308993
v -0.9341723589627159 0 -0.35682208977308993
vn 0.5257311121191338 0 0.8506508083520399
vn 0.8506508083520399 0.5257311121191338 0
vn 0 0.8506508083520399 0.5257311121191338
vn 0 0.8506508083520399 -0.5257311121191337
vn 0.5257311121191337 0 -0.8506508083520399
vn 0 -0.8506508083520399 0.5257311121191337
vn 0.8506508083520399 -0.5257311121191337 0
vn -0.8506508083520399 0.5257311121191337 0
vn -0.5257311121191337 0 0.8506508083520399
vn 0 -0.8506508083520399 -0.5257311121191338
vn -0.5257311121191338 0 -0.8506508083520399
vn -0.8506508083520399 -0.5257311121191338 0
f 1//1 9//1 11//1 3//1 17//1 
f 1//2 17//2 19//2 2//2 13//2 
f 1//3 13//3 15//3 4//3 9//3 
f 2//4 10//4 6//4 15//4 13//4 
f 2//5 19//5 5//5 12//5 10//5 
f 3//6 11//6 7//6 16//6 14//6 
f 3//7 14//7 5//7 19//7 17//7 
f 4//8 15//8 6//8 20//8 18//8 
f 4//9 18//9 7//9 11//9 9//9 
f 5//10 14//10 16//10 8//10 12//10 
f 6//11 10//11 12//11 8//11 20//11 
f 7//12 18//12 20//12 8//12 16//12 
