v 1 0 0
v -1 0 0
v 0 1 0
v 0 -1 0
v 0 0 1
v 0 0 -1
vn 0.5773502691896258 0.5773502691896258 0.5773502691896258
vn 0.5773502691896258 -0.5773502691896258 -0.5773502691896258
vn 0.5773502691896258 -0.5773502691896258 0.5773502691896258
vn 0.5773502691896258 0.5773502691896258 -0.5773502691896258
vn -0.5773502691896258 0.5773502691896258 -0.5773502691896258
vn -0.5773502691896258 -0.5773502691896258 0.5773502691896258
vn -0.5773502691896258 0.5773502691896258 0.5773502691896258
vn -0.5773502691896258 -0.5773502691896258 -0.5773502691896258
f 1//1 3//1 5//1 
f 1//2 4//2 6//2 
f 1//3 5//3 4//3 
f 1//4 6//4 3//4 
f 2//5 3//5 6//5 
f 2//6 4//6 5//6 
f 2//7 5//7 3//7 
f 2//8 6//8 4//8 
