v 0.5773502691896258 0.5773502691896258 0.5773502691896258
v -0.5773502691896258 -0.5773502691896258 0.5773502691896258
v -0.5773502691896258 0.5773502691896258 -0.5773502691896258
v 0.5773502691896258 -0.5773502691896258 -0.5773502691896258
vn 0.5773502691896257 -0.5773502691896257 0.5773502691896257
vn -0.5773502691896257 0.5773502691896257 0.5773502691896257
vn 0.5773502691896257 0.5773502691896257 -0.5773502691896257
vn -0.5773502691896257 -0.5773502691896257 -0.5773502691896257
f 1//1 2//1 4//1 
f 1//2 3//2 2//2 
f 1//3 4//3 3//3 
f 2//4 3//4 4//4 